<svg id="SvgjsSvg1001" width="288" height="288" xmlns="http://www.w3.org/2000/svg" version="1.1" xmlns:xlink="http://www.w3.org/1999/xlink" xmlns:svgjs="http://svgjs.com/svgjs"><defs id="SvgjsDefs1002"></defs><g id="SvgjsG1008" transform="matrix(1,0,0,1,0,0)"><svg xmlns="http://www.w3.org/2000/svg" enable-background="new 0 0 391.377 391.377" viewBox="0 0 391.377 391.377" width="288" height="288"><path d="m387.456 91.78c-3.739-6.178-9.648-10.526-16.638-12.245l-208.319-51.237c-2.106-.519-4.27-.781-6.433-.781-12.471 0-23.259 8.45-26.235 20.551l-6.271 25.498-104.155 33.05c-13.918 4.416-22.089 18.982-18.602 33.163l50.1 203.696c1.733 7.046 6.122 12.958 12.358 16.647 4.182 2.474 8.837 3.737 13.564 3.737 2.324 0 4.667-.306 6.977-.923l160.436-42.907 63.58 15.638c2.106.519 4.271.781 6.435.781 12.471 0 23.259-8.451 26.233-20.55l50.102-203.698c1.719-6.989.607-14.241-3.132-20.42zm-308.21 241.322-48.825-198.507 84.742-26.89-35.431 144.058c-1.721 6.99-.608 14.243 3.131 20.422 3.738 6.178 9.646 10.527 16.639 12.247l84.249 20.721zm256.46-123.371-28.492-43.88c-3.492-5.379-9.295-8.59-15.523-8.59-4.229 0-8.271 1.438-11.69 4.157l-60.656 48.255c-1.82 1.449-4.045 2.215-6.434 2.215-3.137 0-6.058-1.336-8.014-3.663l-22.981-27.35c-4.406-5.242-11.464-8.372-18.879-8.372-3.661 0-7.207.803-10.254 2.32l-26.477 13.193 31.942-129.871 202.492 49.805z" fill="#a9adb0" class="color000 svgShape"></path><path d="m207.988 145.842c2.114.52 4.282.783 6.442.783 12.406 0 23.143-8.423 26.109-20.483 3.542-14.405-5.295-29.008-19.7-32.552-2.114-.52-4.282-.783-6.442-.783-12.406 0-23.143 8.423-26.109 20.483-3.542 14.405 5.295 29.008 19.7 32.552z" fill="#a9adb0" class="color000 svgShape"></path></svg></g></svg>