<svg width="82" height="38" viewBox="0 0 82 38" fill="none" xmlns="http://www.w3.org/2000/svg">
<g clip-path="url(#clip0)">
<path d="M80.85 6.26999H76.44C76.0995 6.28527 75.7705 6.39799 75.4922 6.59476C75.2139 6.79153 74.9979 7.06407 74.87 7.37999L73.87 10.26L73.07 12.49L71.95 15.72C71.833 16.1056 71.6755 16.4776 71.48 16.83C71.2774 16.4764 71.1163 16.1006 71 15.71L69.93 12.5C69.72 11.88 69.37 10.88 69.15 10.26L68.15 7.37999C68.0213 7.06257 67.8038 6.78901 67.5236 6.59212C67.2433 6.39524 66.9122 6.28339 66.57 6.26999H49.61C49.297 6.26999 48.9969 6.39431 48.7756 6.6156C48.5543 6.83689 48.43 7.13703 48.43 7.44999V14.18C48.43 14.4956 48.3046 14.7983 48.0814 15.0214C47.8583 15.2446 47.5556 15.37 47.24 15.37H42.32C42.0052 15.3674 41.704 15.2412 41.4814 15.0186C41.2588 14.796 41.1326 14.4948 41.13 14.18V7.44999C41.1303 7.1455 41.0128 6.8527 40.8022 6.63279C40.5916 6.41288 40.3042 6.28289 40 6.26999H35.9C35.5861 6.26997 35.2849 6.39398 35.062 6.61499C34.8392 6.836 34.7126 7.13611 34.71 7.44999V10.56C36.89 13.34 36.89 18.4 34.71 25.94V29.53C34.7126 29.8439 34.8392 30.144 35.062 30.365C35.2849 30.586 35.5861 30.71 35.9 30.71H40C40.3129 30.71 40.6131 30.5857 40.8344 30.3644C41.0557 30.1431 41.18 29.8429 41.18 29.53V22.19C41.1797 21.8829 41.2982 21.5875 41.5107 21.3657C41.7231 21.1439 42.0131 21.0129 42.32 21H47.24C47.3958 20.9987 47.5503 21.0282 47.6946 21.0869C47.839 21.1456 47.9702 21.2323 48.0808 21.342C48.1915 21.4517 48.2793 21.5823 48.3392 21.7261C48.3991 21.8699 48.43 22.0242 48.43 22.18V29.52C48.43 29.8329 48.5543 30.1331 48.7756 30.3544C48.9969 30.5757 49.297 30.7 49.61 30.7H63.44C63.7529 30.7 64.0531 30.5757 64.2744 30.3544C64.4957 30.1331 64.62 29.8329 64.62 29.52V26.48C64.62 26.167 64.4957 25.8669 64.2744 25.6456C64.0531 25.4243 63.7529 25.3 63.44 25.3H56.1C55.7861 25.2973 55.486 25.1708 55.265 24.9479C55.044 24.725 54.92 24.4239 54.92 24.11V22.11C54.92 21.7961 55.044 21.4949 55.265 21.272C55.486 21.0492 55.7861 20.9226 56.1 20.92H60.53C60.8429 20.92 61.1431 20.7957 61.3644 20.5744C61.5857 20.3531 61.71 20.0529 61.71 19.74V16.7C61.71 16.387 61.5857 16.0869 61.3644 15.8656C61.1431 15.6443 60.8429 15.52 60.53 15.52H56.1C55.7861 15.5173 55.486 15.3908 55.265 15.1679C55.044 14.945 54.92 14.6439 54.92 14.33V12.87C54.9187 12.7142 54.9482 12.5597 55.0069 12.4153C55.0656 12.271 55.1523 12.1398 55.2621 12.0291C55.3718 11.9185 55.5023 11.8307 55.6461 11.7708C55.7899 11.7108 55.9442 11.68 56.1 11.68H62.1C62.4484 11.6987 62.7858 11.8082 63.0788 11.9977C63.3717 12.1872 63.61 12.4499 63.77 12.76L67.66 21.21C67.965 21.9259 68.1346 22.6922 68.16 23.47V29.53C68.16 29.8429 68.2843 30.1431 68.5056 30.3644C68.7269 30.5857 69.027 30.71 69.34 30.71H73.44C73.5958 30.7113 73.7503 30.6818 73.8946 30.623C74.039 30.5643 74.1702 30.4776 74.2809 30.3679C74.3915 30.2582 74.4793 30.1277 74.5392 29.9839C74.5991 29.8401 74.63 29.6858 74.63 29.53V23.47C74.6569 22.6934 74.8229 21.928 75.12 21.21L81.54 7.33999C81.6123 7.227 81.6506 7.09562 81.6503 6.96149C81.6501 6.82736 81.6113 6.69612 81.5386 6.58339C81.4659 6.47067 81.3624 6.3812 81.2403 6.32564C81.1182 6.27008 80.9827 6.25076 80.85 6.26999V6.26999Z" fill="url(#paint0_linear)"/>
<path d="M29 10.43C27.4288 10.8555 26.0041 11.7027 24.88 12.88C23.57 8.28 20.75 1.32 18 0.180002C17.7093 0.0449217 17.3905 -0.0183212 17.0702 -0.00439872C16.75 0.00952378 16.4378 0.100204 16.16 0.260002C14.44 1.26 13.32 4.48 14.3 10.58C10.52 3.66 9.2 3.67 8.59 3.66C8.29697 3.6641 8.01166 3.75451 7.76976 3.91993C7.52786 4.08534 7.34011 4.31842 7.23 4.59C6.82 5.5 6 8.34 8 14.45C5.59 11.15 4.85 10.73 4 10.77C3.728 10.786 3.46541 10.8754 3.24006 11.0285C3.01471 11.1817 2.83501 11.393 2.72 11.64C2 13 2.08 16.42 4.32 21.52C3.55278 20.843 2.58135 20.4417 1.56 20.38C1.28494 20.3993 1.0191 20.4872 0.786765 20.6357C0.55443 20.7841 0.36301 20.9885 0.229997 21.23C-0.680003 22.9 1.23 27.59 3.59 30.77C5.5 33.38 9.33 37.39 14.89 37.39C15.6685 37.3888 16.4452 37.3152 17.21 37.17C17.3413 37.1444 17.4663 37.0932 17.5778 37.0193C17.6894 36.9453 17.7852 36.8502 17.86 36.7392C17.9347 36.6283 17.9869 36.5037 18.0135 36.3725C18.0401 36.2414 18.0406 36.1063 18.015 35.975C17.9894 35.8437 17.9382 35.7187 17.8643 35.6072C17.7903 35.4956 17.6952 35.3998 17.5842 35.325C17.4733 35.2503 17.3486 35.1981 17.2175 35.1715C17.0864 35.1449 16.9513 35.1444 16.82 35.17C12.2 36.07 8.72 33.53 6.61 31.25C3.46 27.84 2.08 23.74 2 22.49C2.66 22.76 4.56 23.88 8.26 28.62C8.41648 28.8388 8.65346 28.9865 8.91883 29.0306C9.18419 29.0746 9.45619 29.0115 9.675 28.855C9.8938 28.6985 10.0415 28.4615 10.0856 28.1962C10.1296 27.9308 10.0665 27.6588 9.91 27.44C4.71 19.55 4.2 14.77 4.37 13.16C5.9 14.72 9.72 20.44 12.6 24.76C12.7418 24.9814 12.965 25.138 13.2214 25.196C13.4778 25.2541 13.7467 25.2088 13.97 25.07C14.1987 24.9381 14.366 24.7211 14.4353 24.4663C14.5046 24.2115 14.4704 23.9396 14.34 23.71C8.34 12.71 8.55 7.71 8.9 6.03C9.8 6.94 12.19 10.11 17.22 21.03C17.3273 21.2703 17.525 21.4586 17.7703 21.554C18.0155 21.6495 18.2885 21.6445 18.53 21.54C18.7762 21.4439 18.9743 21.2543 19.0811 21.0126C19.1879 20.7709 19.1947 20.4967 19.1 20.25C14.22 7 16.34 2.51 17.15 2C18.2 2 21.15 7.06 22.99 13.69C23.1 14.1 23.21 14.5 23.31 14.89C23.0518 15.3437 22.8503 15.8273 22.71 16.33C21.71 20 20.71 28.33 22.64 30.62C22.832 30.8599 23.0805 31.0484 23.3632 31.1688C23.6459 31.2893 23.954 31.3377 24.26 31.31C24.6475 31.2679 25.0207 31.1402 25.3528 30.9361C25.6848 30.732 25.9674 30.4567 26.18 30.13C27.97 27.52 26.92 20.97 25.49 15.24C26.4641 13.8622 27.8728 12.8515 29.49 12.37C29.8356 12.2614 30.2042 12.2487 30.5564 12.3332C30.9087 12.4177 31.2314 12.5964 31.49 12.85C32.31 13.77 33.74 17.21 29.4 29.34C29.3098 29.5946 29.3245 29.8746 29.4408 30.1184C29.557 30.3622 29.7654 30.5498 30.02 30.64C30.2746 30.7302 30.5546 30.7155 30.7984 30.5992C31.0422 30.483 31.2298 30.2746 31.32 30.02C34.78 20.35 35.32 14.12 33.01 11.5C32.5074 10.9662 31.8657 10.5832 31.1573 10.3942C30.4489 10.2052 29.7018 10.2176 29 10.43V10.43ZM24.5 29C24.4252 29.1344 24.3045 29.2373 24.16 29.29C23.41 28.4 23.41 23.13 24.23 18.81C25.78 26.28 24.88 28.47 24.5 29Z" fill="url(#paint1_linear)"/>
</g>
<defs>
<linearGradient id="paint0_linear" x1="-1.90001" y1="18.49" x2="82.16" y2="18.49" gradientUnits="userSpaceOnUse">
<stop offset="0.375" stop-color="#3071FF"/>
<stop offset="1" stop-color="#706BFF"/>
</linearGradient>
<linearGradient id="paint1_linear" x1="-65.3822" y1="699.304" x2="2827.2" y2="699.304" gradientUnits="userSpaceOnUse">
<stop stop-color="#388EFF"/>
<stop offset="1" stop-color="#7A75FF"/>
</linearGradient>
<clipPath id="clip0">
<rect width="81.63" height="37.39" fill="white"/>
</clipPath>
</defs>
</svg>
